<svg width="50" height="50" viewBox="0 0 50 50" fill="none" xmlns="http://www.w3.org/2000/svg">
<circle cx="25" cy="25" r="25" fill="#E3C08D"/>
<path d="M25 15C19.5 15 15 19.5 15 25C15 30.5 19.5 35 25 35C30.5 35 35 30.5 35 25C35 19.5 30.5 15 25 15ZM20.7 28.5L20 27.2L24 24.9V20H25.5V25.8L20.7 28.5Z" fill="white"/>
<circle cx="25" cy="25" r="25" fill="#E3C08D"/>
<path d="M16.2391 18H32.0198C33.5086 18 34.2589 18.7375 34.2589 20.2375V30.7625C34.2589 32.25 33.5086 33 32.0198 33H16.2391C14.7503 33 14 32.25 14 30.7625V20.2375C14 18.7375 14.7503 18 16.2391 18ZM24.1235 28.75L32.1508 21.8375C32.4367 21.5875 32.663 21.0125 32.3057 20.5C31.9603 19.9875 31.329 19.975 30.9122 20.2875L24.1235 25.1125L17.3467 20.2875C16.9299 19.975 16.2986 19.9875 15.9532 20.5C15.5959 21.0125 15.8222 21.5875 16.1081 21.8375L24.1235 28.75Z" fill="white"/>
</svg>
