<svg width="50" height="50" viewBox="0 0 50 50" fill="none" xmlns="http://www.w3.org/2000/svg">
<circle cx="25" cy="25" r="25" fill="#E3C08D"/>
<path d="M25 15C19.5 15 15 19.5 15 25C15 30.5 19.5 35 25 35C30.5 35 35 30.5 35 25C35 19.5 30.5 15 25 15ZM20.7 28.5L20 27.2L24 24.9V20H25.5V25.8L20.7 28.5Z" fill="white"/>
<circle cx="25" cy="25" r="25" fill="#E3C08D"/>
<path d="M23.8358 14C19.3023 14 15.6357 17.6975 15.6357 22.2691C15.6357 27.1952 20.8135 33.9877 22.9455 36.5747C23.4141 37.1418 24.2692 37.1418 24.7378 36.5747C26.8581 33.9877 32.0358 27.1952 32.0358 22.2691C32.0358 17.6975 28.3692 14 23.8358 14ZM23.8358 25.2224C23.0591 25.2224 22.3142 24.9112 21.765 24.3574C21.2157 23.8036 20.9072 23.0524 20.9072 22.2691C20.9072 21.4859 21.2157 20.7347 21.765 20.1809C22.3142 19.627 23.0591 19.3159 23.8358 19.3159C24.6125 19.3159 25.3574 19.627 25.9066 20.1809C26.4558 20.7347 26.7644 21.4859 26.7644 22.2691C26.7644 23.0524 26.4558 23.8036 25.9066 24.3574C25.3574 24.9112 24.6125 25.2224 23.8358 25.2224Z" fill="white"/>
</svg>
