<svg width="50" height="50" viewBox="0 0 50 50" fill="none" xmlns="http://www.w3.org/2000/svg">
<circle cx="25" cy="25" r="25" fill="#E3C08D"/>
<path d="M32.8702 30.9547L28.9486 27.2587C28.7632 27.084 28.5196 26.9909 28.2693 26.9989C28.0189 27.0069 27.7813 27.1155 27.6067 27.3017L25.2981 29.7627C24.7425 29.6527 23.6253 29.2917 22.4754 28.1027C21.3255 26.9097 20.9772 25.7487 20.874 25.1767L23.2462 22.7827C23.426 22.6018 23.5309 22.3555 23.5387 22.0959C23.5464 21.8363 23.4564 21.5837 23.2877 21.3917L19.7231 17.3277C19.5543 17.135 19.3197 17.0182 19.0692 17.002C18.8186 16.9857 18.5718 17.0714 18.3812 17.2407L16.2878 19.1017C16.121 19.2752 16.0214 19.5061 16.008 19.7507C15.9935 20.0007 15.7176 25.9227 20.1476 30.5167C24.0122 34.5217 28.8531 34.8147 30.1863 34.8147C30.3812 34.8147 30.5008 34.8087 30.5327 34.8067C30.7685 34.793 30.9912 34.6894 31.1578 34.5157L32.9522 32.3447C33.1162 32.1477 33.1994 31.8921 33.1841 31.6324C33.1688 31.3727 33.0561 31.1295 32.8702 30.9547Z" fill="white"/>
</svg>
