<svg width="60.000000" height="60.000000" viewBox="0 0 60 60" fill="none" xmlns="http://www.w3.org/2000/svg" xmlns:xlink="http://www.w3.org/1999/xlink">
	<desc>
			Created with Pixso.
	</desc>
	<defs>
		<clipPath id="clip1_129">
			<rect id="Food Icon-08 3" rx="0.000000" width="59.000000" height="59.000000" transform="translate(0.500000 0.500000)" fill="white" fill-opacity="0"/>
		</clipPath>
	</defs>
	<rect id="Food Icon-08 3" rx="0.000000" width="59.000000" height="59.000000" transform="translate(0.500000 0.500000)" fill="#FFFFFF" fill-opacity="0"/>
	<g clip-path="url(#clip1_129)">
		<path id="Vector" d="M53.46 29.51L6.04 29.51C4.78 29.51 3.75 30.45 3.75 31.62L3.75 33.97C3.75 35.14 4.78 36.08 6.04 36.08L7.26 36.08L7.26 43.93C7.26 48.43 10.07 52.08 13.52 52.08L45.53 52.08C48.98 52.08 51.79 48.43 51.79 43.93L51.79 36.08L53.48 36.08C54.75 36.08 55.78 35.14 55.78 33.97L55.78 31.62C55.78 30.45 54.75 29.51 53.46 29.51ZM49.92 33.1L49.92 34.2L9.14 34.2L9.14 33.1C9.14 32.51 9.21 31.95 9.3 31.39L49.68 31.39C49.82 31.95 49.92 32.4 49.92 33.1ZM6.04 34.2C5.78 34.2 5.62 34.06 5.62 33.97L5.62 31.62C5.62 31.53 5.78 31.39 6.04 31.39L7.4 31.39C7.31 31.95 7.26 32.51 7.26 33.1L7.26 34.2L6.04 34.2ZM49.92 43.93C49.92 47.4 47.95 50.21 45.53 50.21L13.5 50.21C11.08 50.21 9.11 47.4 9.11 43.93L9.11 36.08L49.89 36.08L49.89 43.93L49.92 43.93ZM53.9 33.97C53.9 34.06 53.74 34.2 53.48 34.2L51.79 34.2L51.79 33.1C51.79 32.42 51.72 31.88 51.6 31.39L53.46 31.39C53.71 31.39 53.88 31.53 53.88 31.62L53.88 33.97L53.9 33.97Z" fill="#E3C08D" fill-opacity="1.000000" fill-rule="nonzero"/>
		<path id="Vector" d="M15.56 19.58C16.26 21.83 18.86 23 20.15 23.3C20.22 23.33 20.29 23.33 20.36 23.33C20.78 23.33 21.16 23.05 21.28 22.6C21.39 22.11 21.09 21.59 20.57 21.48C19.47 21.22 17.71 20.28 17.34 19.01C17.08 18.22 17.43 17.3 18.32 16.3C19.57 14.91 20.08 13.51 19.89 12.08C19.59 9.83 17.53 8.47 17.46 8.42C17.01 8.14 16.45 8.26 16.17 8.7C15.89 9.12 16 9.71 16.45 9.99C16.47 9.99 17.88 10.95 18.07 12.36C18.18 13.2 17.81 14.12 16.96 15.05C15.23 16.98 15.25 18.57 15.56 19.58Z" fill="#E3C08D" fill-opacity="1.000000" fill-rule="nonzero"/>
		<path id="Vector" d="M25.33 19.58C26.03 21.83 28.64 23 29.92 23.3C30 23.33 30.07 23.33 30.14 23.33C30.56 23.33 30.93 23.05 31.05 22.6C31.17 22.11 30.86 21.59 30.35 21.48C29.25 21.22 27.49 20.28 27.11 19.01C26.85 18.22 27.21 17.3 28.1 16.3C29.34 14.91 29.85 13.51 29.67 12.08C29.36 9.83 27.3 8.47 27.21 8.42C26.76 8.14 26.2 8.26 25.92 8.7C25.64 9.12 25.75 9.71 26.2 9.99C26.22 9.99 27.63 10.95 27.82 12.36C27.93 13.2 27.56 14.12 26.71 15.05C25 16.98 25 18.57 25.33 19.58Z" fill="#E3C08D" fill-opacity="1.000000" fill-rule="nonzero"/>
		<path id="Vector" d="M34.78 19.58C35.48 21.83 38.08 23 39.37 23.3C39.44 23.33 39.51 23.33 39.58 23.33C40 23.33 40.38 23.05 40.5 22.6C40.61 22.11 40.31 21.59 39.79 21.48C38.69 21.22 36.93 20.28 36.56 19.01C36.3 18.22 36.65 17.3 37.54 16.3C38.78 14.91 39.3 13.51 39.11 12.08C38.81 9.8 36.75 8.44 36.65 8.4C36.21 8.12 35.64 8.23 35.36 8.68C35.08 9.1 35.2 9.69 35.64 9.97C35.67 9.97 37.07 10.93 37.26 12.33C37.38 13.18 37 14.09 36.16 15.03C34.45 16.98 34.47 18.57 34.78 19.58Z" fill="#E3C08D" fill-opacity="1.000000" fill-rule="nonzero"/>
	</g>
</svg>
