<svg width="47.997620" height="51.000000" viewBox="0 0 47.9976 51" fill="none" xmlns="http://www.w3.org/2000/svg" xmlns:xlink="http://www.w3.org/1999/xlink">
	<desc>
			Created with Pixso.
	</desc>
	<defs/>
	<path id="Vector" d="M47.99 25.17C47.99 24.94 47.99 24.66 47.97 24.37C47.95 23.89 47.54 23.5 47.06 23.5L46.44 23.5C46.19 16.94 40.84 11.68 34.28 11.68C31.06 11.68 28.13 12.96 25.94 15.02C25.48 14.08 24.73 13.08 23.63 12.03C22.42 10.84 21.8 9.65 21.57 8.55L45.89 8.55C46.39 8.55 46.8 8.14 46.8 7.64C46.8 7.13 46.39 6.72 45.89 6.72L21.48 6.72C21.57 5.67 21.94 4.85 22.17 4.41L46 1.81C46.51 1.76 46.87 1.31 46.8 0.8C46.76 0.3 46.3 -0.07 45.8 0L11.4 3.77C10.9 3.82 10.53 4.28 10.6 4.78C10.65 5.24 11.06 5.6 11.51 5.6C11.54 5.6 11.58 5.6 11.61 5.6L12.13 5.56C11.99 5.92 11.9 6.31 11.88 6.77L11.51 6.77C11.01 6.77 10.6 7.18 10.6 7.68C10.6 8.19 11.01 8.6 11.51 8.6L12.22 8.6C12.66 9.63 13.5 10.56 14.78 11.41C16.98 12.87 16.86 13.56 16.86 13.58C16.82 13.85 16.15 14.33 14.62 14.63C14.01 14.49 13.37 14.43 12.7 14.43C7.7 14.43 3.61 18.47 3.47 23.5L0.93 23.5C0.45 23.5 0.04 23.89 0.02 24.37C0 24.66 0 24.92 0 25.17C0 33.65 5.75 40.98 14.03 44.3C12.93 44.34 12.06 45.26 12.06 46.36L12.06 48.94C12.06 50.08 12.98 51 14.12 51L32.56 51C33.71 51 34.62 50.08 34.62 48.94L34.62 46.36C34.62 45.53 34.14 44.82 33.46 44.5C42 41.28 47.99 33.83 47.99 25.17ZM34.3 13.51C39.86 13.51 44.38 17.95 44.63 23.5L43.31 23.5C43.03 18.79 39.03 15.04 34.14 15.04C29.25 15.04 25.23 18.79 24.98 23.5L23.97 23.5C24.04 22.22 24.31 20.99 24.79 19.87C25.59 19.32 26.14 18.63 26.35 17.81C26.39 17.6 26.44 17.4 26.46 17.17C28.34 14.93 31.15 13.51 34.3 13.51ZM39.28 23.5C39.03 20.94 36.82 18.93 34.12 18.93C31.42 18.93 29.21 20.94 28.95 23.5L26.83 23.5C27.1 19.8 30.28 16.87 34.16 16.87C38.05 16.87 41.23 19.8 41.5 23.5L39.28 23.5ZM37.43 23.5L30.78 23.5C31.03 21.95 32.43 20.76 34.1 20.76C35.79 20.76 37.18 21.95 37.43 23.5ZM24.59 16.57C24.13 17.19 23.72 17.88 23.35 18.59C22.9 18.81 22.42 18.97 22.12 19.04C21.64 19.16 21.34 19.66 21.46 20.16C21.57 20.57 21.94 20.85 22.35 20.85C22.42 20.85 22.46 20.85 22.53 20.83C22.3 21.69 22.17 22.59 22.14 23.5L21.94 23.5C21.89 21.53 21.23 19.71 20.13 18.22C21.57 17.69 22.49 16.85 22.74 15.8C22.99 14.79 22.62 13.72 21.69 12.57C21.91 12.83 22.14 13.1 22.39 13.35C23.65 14.59 24.41 15.71 24.59 16.57ZM21.53 12.41C21.11 11.93 20.59 11.43 19.95 10.91C18.97 10.11 18.39 9.31 18.1 8.57L19.74 8.57C19.93 9.79 20.45 11.09 21.53 12.41ZM19.65 6.75L17.8 6.75C17.87 5.88 18.23 5.19 18.46 4.85L20.09 4.67C19.9 5.24 19.72 5.95 19.65 6.75ZM14.28 5.28L16.34 5.05C16.15 5.53 16.02 6.11 15.97 6.72L13.69 6.72C13.75 6.11 14.07 5.58 14.28 5.28ZM15.77 9.85C15.13 9.44 14.65 9.01 14.3 8.55L16.15 8.55C16.47 9.74 17.25 11.04 18.78 12.3C20.95 14.08 21.02 15.02 20.93 15.34C20.79 15.89 19.97 16.39 18.74 16.69C18.28 16.28 17.78 15.93 17.25 15.61C18.03 15.18 18.51 14.61 18.65 13.92C18.92 12.67 17.98 11.34 15.77 9.85ZM12.68 16.25C16.68 16.25 19.95 19.48 20.09 23.5L19.61 23.5C19.47 19.84 16.36 16.92 12.59 16.92C8.79 16.92 5.71 19.84 5.57 23.5L5.3 23.5C5.41 19.48 8.68 16.25 12.68 16.25ZM16.61 23.5C16.47 21.42 14.69 19.77 12.54 19.77C10.39 19.77 8.61 21.42 8.47 23.5L7.38 23.5C7.51 20.85 9.8 18.75 12.57 18.75C15.33 18.75 17.62 20.85 17.75 23.5L16.61 23.5ZM14.78 23.5L10.33 23.5C10.46 22.43 11.42 21.6 12.57 21.6C13.69 21.6 14.65 22.43 14.78 23.5ZM32.56 46.13C32.7 46.13 32.79 46.22 32.79 46.36L32.79 48.94C32.79 49.08 32.7 49.17 32.56 49.17L14.12 49.17C13.98 49.17 13.89 49.08 13.89 48.94L13.89 46.36C13.89 46.22 13.98 46.13 14.12 46.13L21.96 46.13C22.62 46.17 23.31 46.2 23.99 46.2C24.68 46.2 25.37 46.17 26.03 46.13L32.56 46.13ZM25.96 44.3L22.03 44.3C10.78 43.43 1.91 35.27 1.82 25.33L46.16 25.33C46.07 35.27 37.2 43.43 25.96 44.3Z" fill="#E3C08D" fill-opacity="1.000000" fill-rule="nonzero"/>
</svg>
