<svg width="60.000000" height="60.000000" viewBox="0 0 60 60" fill="none" xmlns="http://www.w3.org/2000/svg" xmlns:xlink="http://www.w3.org/1999/xlink">
	<desc>
			Created with Pixso.
	</desc>
	<defs>
		<clipPath id="clip1_224">
			<rect id="Food Icon-39 3" rx="0.000000" width="59.000000" height="59.000000" transform="translate(0.500000 0.500000)" fill="white" fill-opacity="0"/>
		</clipPath>
	</defs>
	<rect id="Food Icon-39 3" rx="0.000000" width="59.000000" height="59.000000" transform="translate(0.500000 0.500000)" fill="#FFFFFF" fill-opacity="0"/>
	<g clip-path="url(#clip1_224)">
		<path id="Vector" d="M57.21 20.76C56.84 20 56.17 19.45 55.35 19.23C55.8 18.44 55.87 17.48 55.48 16.64C55.13 15.92 54.51 15.38 53.72 15.13C52.96 14.91 52.14 14.96 51.4 15.3C50.19 15.87 49.52 17.3 49.52 18.56C48.07 19.23 44.63 20.79 42.93 21.58C42.76 21.55 42.56 21.53 42.34 21.53C41.3 21.53 39.37 21.82 37.3 22.24C33.74 19.53 29.52 18.07 25.07 18.07C13.95 18.07 4.86 27.21 4.49 38.6C3.21 38.92 2.25 40.05 2.25 41.41C2.25 43.02 3.6 44.33 5.26 44.33L45.92 44.33C47.57 44.33 48.93 43.02 48.93 41.41C48.93 39.81 47.57 38.5 45.92 38.5L45.67 38.5C45.55 35.14 44.63 31.85 43.05 28.94L45.3 27.18C45.45 27.06 45.57 26.89 45.65 26.69C45.65 26.67 45.67 26.59 45.7 26.49C47.38 25.7 50.24 24.34 51.7 23.65C52.46 24.91 54.17 25.41 55.63 24.71C57.16 24 57.87 22.22 57.21 20.76ZM46.91 41.41C46.91 41.93 46.44 42.35 45.87 42.35L5.21 42.35C4.64 42.35 4.17 41.93 4.17 41.41C4.17 40.89 4.64 40.47 5.21 40.47L45.87 40.47C46.44 40.47 46.91 40.89 46.91 41.41ZM43.65 38.5L6.42 38.5C6.84 28.25 15.04 20.05 25.02 20.05C28.45 20.05 31.71 20.98 34.58 22.79C31.42 23.48 28.55 24.2 28.31 24.24C28.23 24.27 27.44 24.64 27.44 24.64C25.19 25.7 22.95 29.88 24.55 33.29C25.74 35.81 28.7 36.97 30.95 36.97C31.76 36.97 32.5 36.82 33.07 36.55C33.37 36.4 33.67 36.23 33.91 35.98L41.4 30.17C42.76 32.72 43.52 35.56 43.65 38.5ZM32.7 34.42C32.68 34.45 32.65 34.45 32.65 34.47C32.53 34.57 32.41 34.67 32.26 34.72C31.94 34.87 31.49 34.94 30.97 34.94C29.29 34.94 27.17 34.08 26.38 32.4C25.27 30.03 27.02 27.01 28.33 26.39L28.92 26.12C31.96 25.36 40.01 23.5 42.31 23.5C42.51 23.5 42.58 23.53 42.61 23.53C43.1 23.65 43.45 23.87 43.62 24.22C43.87 24.66 43.87 25.26 43.82 25.68L43.82 25.7C43.82 25.75 43.79 25.8 43.79 25.85L32.7 34.42ZM54.74 22.94C54.14 23.21 53.5 23.03 53.3 22.59C53.28 22.54 53.03 22 53.03 21.97L52.64 21.01L51.7 21.45C51.7 21.45 48.17 23.13 45.72 24.29C45.65 23.95 45.52 23.6 45.35 23.26C45.25 23.08 45.15 22.94 45.03 22.79C47.47 21.68 51.01 20.07 51.01 20.07L51.82 19.7L51.55 18.86C51.4 18.37 51.75 17.35 52.27 17.11C52.56 16.96 52.88 16.93 53.18 17.03C53.33 17.08 53.58 17.2 53.72 17.48C53.92 17.9 53.7 18.44 53.21 18.74L52.46 19.21L53.35 21.38L54.24 21.16C54.76 21.03 55.28 21.21 55.45 21.6C55.63 22.05 55.33 22.66 54.74 22.94Z" fill="#E3C08D" fill-opacity="1.000000" fill-rule="nonzero"/>
		<path id="Vector" d="M10.35 32.36C9.8 32.36 9.36 32.8 9.36 33.35L9.36 33.67C9.36 34.21 9.8 34.66 10.35 34.66C10.89 34.66 11.34 34.21 11.34 33.67L11.34 33.35C11.34 32.8 10.89 32.36 10.35 32.36Z" fill="#E3C08D" fill-opacity="1.000000" fill-rule="nonzero"/>
		<path id="Vector" d="M13.51 31.99L13.51 31.67C13.51 31.13 13.06 30.68 12.52 30.68C11.98 30.68 11.53 31.13 11.53 31.67L11.53 31.99C11.53 32.53 11.98 32.98 12.52 32.98C13.06 32.98 13.51 32.53 13.51 31.99Z" fill="#E3C08D" fill-opacity="1.000000" fill-rule="nonzero"/>
		<path id="Vector" d="M13.06 34.04C12.52 34.04 12.08 34.48 12.08 35.03L12.08 35.35C12.08 35.89 12.52 36.34 13.06 36.34C13.61 36.34 14.05 35.89 14.05 35.35L14.05 35.03C14.05 34.48 13.61 34.04 13.06 34.04Z" fill="#E3C08D" fill-opacity="1.000000" fill-rule="nonzero"/>
	</g>
</svg>
