<svg width="60.000000" height="60.000000" viewBox="0 0 60 60" fill="none" xmlns="http://www.w3.org/2000/svg" xmlns:xlink="http://www.w3.org/1999/xlink">
	<desc>
			Created with Pixso.
	</desc>
	<defs>
		<clipPath id="clip1_186">
			<rect id="Food Icon-50 4" rx="0.000000" width="59.000000" height="59.000000" transform="translate(0.500000 0.500000)" fill="white" fill-opacity="0"/>
		</clipPath>
	</defs>
	<rect id="Food Icon-50 4" rx="0.000000" width="59.000000" height="59.000000" transform="translate(0.500000 0.500000)" fill="#FFFFFF" fill-opacity="0"/>
	<g clip-path="url(#clip1_186)">
		<path id="Vector" d="M52.07 40.09C53.09 39.28 53.7 38.22 53.7 37C53.7 35.53 52.78 34.24 51.31 33.4C52.78 32.57 53.72 31.28 53.72 29.78C53.72 28.79 53.32 27.91 52.61 27.15C52.76 27.09 52.89 27.04 53.01 26.94C54.66 25.52 55.5 24 55.5 22.36C55.5 19.42 52.71 16.73 47.67 14.81C42.93 13.01 36.65 12 29.98 12C23.32 12 17.04 12.98 12.3 14.81C7.28 16.76 4.5 19.44 4.5 22.38C4.5 24.03 5.33 25.55 6.98 26.97C7.1 27.09 7.28 27.17 7.43 27.2C6.72 27.93 6.32 28.82 6.32 29.81C6.32 31.28 7.23 32.57 8.7 33.4C7.23 34.24 6.29 35.53 6.29 37.03C6.29 38.19 6.88 39.23 7.84 40.04C6.27 40.75 5.15 42.25 5.15 44.02C5.15 46.45 7.23 48.4 9.82 48.4L49.9 48.4C52.45 48.4 54.56 46.43 54.56 44.02C54.58 42.3 53.57 40.83 52.07 40.09ZM10.73 39.26L13.03 36.01L14.22 39.59L12.83 39.59C12.07 39.59 11.36 39.46 10.73 39.26ZM37.18 27.22L30.08 32.16L23.22 27.22L33.76 27.22L37.18 27.22ZM48.78 34.59L47.92 37.51C47.79 37.2 47.67 36.92 47.57 36.62C47.21 35.73 46.88 35 46.65 34.42L47.21 34.42C47.74 34.42 48.27 34.49 48.78 34.59ZM42.22 37.84L40.75 34.42L43.49 34.42C43.26 35 42.98 35.73 42.65 36.65C42.5 37.05 42.35 37.46 42.22 37.84ZM31.6 34.42L29.78 38.12L28.28 34.42L31.6 34.42ZM14.63 34.42L18.3 34.42L15.92 38.24L14.63 34.42ZM19.97 35.56L21.75 39.59L17.47 39.59L19.97 35.56ZM21.67 34.42L25.14 34.42L23.32 38.19L21.67 34.42ZM26.69 35.91L28.18 39.61L24.92 39.61L26.69 35.91ZM33.12 35.91L34.54 39.59L31.33 39.59L33.12 35.91ZM34.72 34.42L37.63 34.42L36.09 37.96L34.72 34.42ZM39.18 35.94L40.75 39.59L37.58 39.59L39.18 35.94ZM45.08 35.91C45.51 36.92 46.04 38.24 46.58 39.59L43.74 39.59C44.22 38.27 44.68 36.95 45.08 35.91ZM49.54 39.18L50.66 35.4C51.29 35.86 51.67 36.42 51.67 37C51.67 37.89 50.81 38.7 49.54 39.18ZM47.24 32.39L47.19 32.39L39.18 32.39L33.28 32.39L40.7 27.22L47.24 27.22C49.62 27.22 51.72 28.44 51.72 29.81C51.72 31.17 49.62 32.39 47.24 32.39ZM6.52 22.38C6.52 20.36 8.9 18.3 13.03 16.73C17.54 15.01 23.57 14.07 29.98 14.07C36.39 14.07 42.42 15.01 46.93 16.73C51.09 18.3 53.44 20.38 53.44 22.38C53.44 23.32 52.94 24.26 51.92 25.19L47.24 25.19L33.76 25.19L20.08 25.19L12.86 25.19L8.04 25.19C7.05 24.26 6.52 23.32 6.52 22.38ZM12.86 27.22L19.72 27.22L26.89 32.39L12.86 32.39C10.47 32.39 8.37 31.17 8.37 29.81C8.4 28.41 10.47 27.22 12.86 27.22ZM11.61 34.52L8.95 38.24C8.57 37.86 8.35 37.43 8.35 37C8.35 35.86 9.76 34.85 11.61 34.52ZM49.92 46.35L9.84 46.35C8.4 46.35 7.21 45.29 7.21 43.99C7.21 42.7 8.4 41.64 9.84 41.64L12.83 41.64L47.21 41.64L49.95 41.64C51.39 41.64 52.58 42.7 52.58 43.99C52.58 45.29 51.39 46.35 49.92 46.35Z" fill="#E3C08D" fill-opacity="1.000000" fill-rule="nonzero"/>
		<path id="Vector" d="M16.88 20.46C17.44 20.46 17.9 20 17.9 19.44L17.9 19.11C17.9 18.56 17.44 18.1 16.88 18.1C16.33 18.1 15.87 18.56 15.87 19.11L15.87 19.44C15.87 20 16.33 20.46 16.88 20.46Z" fill="#E3C08D" fill-opacity="1.000000" fill-rule="nonzero"/>
		<path id="Vector" d="M19.09 18.73C19.65 18.73 20.1 18.28 20.1 17.72L20.1 17.39C20.1 16.83 19.65 16.38 19.09 16.38C18.53 16.38 18.07 16.83 18.07 17.39L18.07 17.72C18.07 18.28 18.53 18.73 19.09 18.73Z" fill="#E3C08D" fill-opacity="1.000000" fill-rule="nonzero"/>
		<path id="Vector" d="M18.66 20.84L18.66 21.17C18.66 21.72 19.11 22.18 19.67 22.18C20.23 22.18 20.68 21.72 20.68 21.17L20.68 20.84C20.68 20.28 20.23 19.82 19.67 19.82C19.11 19.82 18.66 20.28 18.66 20.84Z" fill="#E3C08D" fill-opacity="1.000000" fill-rule="nonzero"/>
	</g>
</svg>
