<svg width="50" height="50" viewBox="0 0 50 50" fill="none" xmlns="http://www.w3.org/2000/svg">
<circle cx="25" cy="25" r="24" stroke="#E3C08D" stroke-width="2"/>
<g clip-path="url(#clip0_1_1636)">
<path d="M36 28.25C36 27.6 35.5 27.1 34.9 27C34.95 26.85 35 26.65 35 26.5C35 26.25 34.9 26 34.8 25.75C35.2 25.5 35.5 25.05 35.5 24.5C35.5 24.25 35.45 24.05 35.35 23.85C35.75 23.65 36 23.25 36 22.75C36 22.1 35.5 21.6 34.9 21.5C34.95 21.35 35 21.15 35 21C35 17.4 32.1 14.5 28.5 14.5H21.5C17.9 14.5 15 17.4 15 21C15 21.2 15.05 21.35 15.1 21.5C14.5 21.6 14 22.1 14 22.75C14 23.2 14.25 23.65 14.65 23.85C14.55 24.05 14.5 24.25 14.5 24.5C14.5 25.05 14.8 25.5 15.2 25.75C15.1 26 15 26.25 15 26.5C15 26.7 15.05 26.85 15.1 27C14.5 27.1 14 27.6 14 28.25C14 28.6 14.15 28.95 14.4 29.15C14.15 29.45 14 29.85 14 30.25C14 31 14.45 31.65 15.15 31.9C15.05 32.05 15 32.3 15 32.5C15 34.15 16.35 35.5 18 35.5H32C33.65 35.5 35 34.15 35 32.5C35 32.3 34.95 32.05 34.85 31.9C35.5 31.65 36 31 36 30.25C36 29.85 35.85 29.45 35.6 29.15C35.85 28.95 36 28.6 36 28.25ZM16 26.5C16 26.2 16.2 26 16.5 26H19.5V26.75C19.5 26.85 19.5 26.9 19.5 27H16.5C16.2 27 16 26.8 16 26.5ZM16 25C15.7 25 15.5 24.8 15.5 24.5C15.5 24.2 15.7 24 16 24H34C34.3 24 34.5 24.2 34.5 24.5C34.5 24.8 34.3 25 34 25H33.5H31.5H29.5H25H24.2C23.65 25 23.1 25.2 22.65 25.55L20.9 26.95C20.75 27.05 20.5 26.95 20.5 26.75V26C20.5 25.45 20.05 25 19.5 25H16.5H16ZM23.25 26.35C23.3 26.3 23.35 26.3 23.4 26.25C23.45 26.35 23.5 26.4 23.5 26.5C23.5 26.8 23.3 27 23 27H22.45L23.25 26.35ZM24.5 26.5C24.5 26.2 24.7 26 25 26H29.5C29.8 26 30 26.2 30 26.5C30 26.8 29.8 27 29.5 27H25C24.7 27 24.5 26.8 24.5 26.5ZM31 26.5C31 26.2 31.2 26 31.5 26H33.5C33.8 26 34 26.2 34 26.5C34 26.8 33.8 27 33.5 27H31.5C31.2 27 31 26.8 31 26.5ZM21.5 15.5H28.5C31.55 15.5 34 17.95 34 21C34 21.3 33.8 21.5 33.5 21.5H16.5C16.2 21.5 16 21.3 16 21C16 17.95 18.45 15.5 21.5 15.5ZM15.25 22.5H16.5H33.5H34.75C34.9 22.5 35 22.6 35 22.75C35 22.9 34.9 23 34.75 23H34H16H15.25C15.1 23 15 22.9 15 22.75C15 22.6 15.1 22.5 15.25 22.5ZM15.25 28H16.5H20.75H23H25H29.5H31.5H33.5H34.75C34.9 28 35 28.1 35 28.25C35 28.4 34.9 28.5 34.75 28.5H34.25H15.75H15.25C15.1 28.5 15 28.4 15 28.25C15 28.1 15.1 28 15.25 28ZM32 34.5H18C16.9 34.5 16 33.6 16 32.5C16 32.2 16.2 32 16.5 32H33.5C33.8 32 34 32.2 34 32.5C34 33.6 33.1 34.5 32 34.5ZM34.25 31H33.5H16.5H15.75C15.35 31 15 30.65 15 30.25C15 29.85 15.35 29.5 15.75 29.5H34.25C34.65 29.5 35 29.85 35 30.25C35 30.65 34.65 31 34.25 31Z" fill="#E3C08D"/>
<path d="M23.5 18C23.7761 18 24 17.7761 24 17.5C24 17.2239 23.7761 17 23.5 17C23.2239 17 23 17.2239 23 17.5C23 17.7761 23.2239 18 23.5 18Z" fill="#E3C08D"/>
<path d="M20.5 18C20.7761 18 21 17.7761 21 17.5C21 17.2239 20.7761 17 20.5 17C20.2239 17 20 17.2239 20 17.5C20 17.7761 20.2239 18 20.5 18Z" fill="#E3C08D"/>
<path d="M19 20C19.2761 20 19.5 19.7761 19.5 19.5C19.5 19.2239 19.2761 19 19 19C18.7239 19 18.5 19.2239 18.5 19.5C18.5 19.7761 18.7239 20 19 20Z" fill="#E3C08D"/>
<path d="M22 20C22.2761 20 22.5 19.7761 22.5 19.5C22.5 19.2239 22.2761 19 22 19C21.7239 19 21.5 19.2239 21.5 19.5C21.5 19.7761 21.7239 20 22 20Z" fill="#E3C08D"/>
<path d="M29.5 18C29.7761 18 30 17.7761 30 17.5C30 17.2239 29.7761 17 29.5 17C29.2239 17 29 17.2239 29 17.5C29 17.7761 29.2239 18 29.5 18Z" fill="#E3C08D"/>
<path d="M26.5 18C26.7761 18 27 17.7761 27 17.5C27 17.2239 26.7761 17 26.5 17C26.2239 17 26 17.2239 26 17.5C26 17.7761 26.2239 18 26.5 18Z" fill="#E3C08D"/>
<path d="M25 20C25.2761 20 25.5 19.7761 25.5 19.5C25.5 19.2239 25.2761 19 25 19C24.7239 19 24.5 19.2239 24.5 19.5C24.5 19.7761 24.7239 20 25 20Z" fill="#E3C08D"/>
<path d="M28 20C28.2761 20 28.5 19.7761 28.5 19.5C28.5 19.2239 28.2761 19 28 19C27.7239 19 27.5 19.2239 27.5 19.5C27.5 19.7761 27.7239 20 28 20Z" fill="#E3C08D"/>
<path d="M31 20C31.2761 20 31.5 19.7761 31.5 19.5C31.5 19.2239 31.2761 19 31 19C30.7239 19 30.5 19.2239 30.5 19.5C30.5 19.7761 30.7239 20 31 20Z" fill="#E3C08D"/>
</g>
<defs>
<clipPath id="clip0_1_1636">
<rect width="22" height="22" fill="white" transform="translate(14 14)"/>
</clipPath>
</defs>
</svg>
