<svg width="50" height="50" viewBox="0 0 50 50" fill="none" xmlns="http://www.w3.org/2000/svg">
<circle cx="25" cy="25" r="24" stroke="#E3C08D" stroke-width="2"/>
<path d="M30.8 17.6C29.7 15.4 27.45 14 25 14C22.55 14 20.3 15.4 19.2 17.6C17.35 17.95 16 19.6 16 21.5C16 22.9 16.7 24.15 17.9 24.9L18 24.95C18.3 27.3 18.45 29.7 18.5 32C18.25 32 18 32.2 18 32.5V35.5C18 35.8 18.2 36 18.5 36H31.5C31.8 36 32 35.8 32 35.5V32.5C32 32.25 31.8 32 31.5 32C31.5 29.7 31.7 27.35 32 24.95C33.25 24.25 34 22.95 34 21.5C34 19.6 32.65 17.95 30.8 17.6ZM31 35H19V33H31V35ZM31.35 24.2C31.3 24.2 31.3 24.2 31.35 24.2C30.35 24.65 29.2 24.6 28.3 23.95C28.25 23.95 28.25 23.9 28.2 23.9C28.7 23.25 29 22.4 29 21.5C29 21.2 28.8 21 28.5 21C28.2 21 28 21.2 28 21.5C28 23.15 26.65 24.5 25 24.5C24.7 24.5 24.5 24.7 24.5 25C24.5 25.3 24.7 25.5 25 25.5C25.95 25.5 26.85 25.15 27.55 24.6C27.6 24.7 27.65 24.75 27.7 24.8C28.35 25.25 29.15 25.5 30 25.5C30.3 25.5 30.65 25.45 30.95 25.4C30.7 27.65 30.55 29.85 30.5 32H28V31.55C28 30.2 28.15 28.9 28.5 27.6C28.55 27.35 28.4 27.05 28.15 27C27.9 26.95 27.6 27.1 27.55 27.35C27.2 28.7 27.05 30.1 27.05 31.55V32H25.55V27.5C25.55 27.2 25.35 27 25.05 27C24.75 27 24.55 27.2 24.55 27.5V32H23.05V31.55C23.05 30.15 22.9 28.75 22.55 27.35C22.5 27.1 22.2 26.9 21.95 27C21.7 27.05 21.5 27.35 21.6 27.6C21.9 28.9 22.1 30.2 22.1 31.55V32H19.6C19.6 29.85 19.45 27.6 19.15 25.4C19.45 25.5 19.8 25.5 20.1 25.5C21.15 25.5 22.15 25.1 22.9 24.35C23.1 24.15 23.1 23.85 22.9 23.65C22.7 23.45 22.4 23.45 22.2 23.65C21.55 24.2 20.8 24.5 20 24.5C19.5 24.5 19.05 24.4 18.65 24.15C17.65 23.65 17 22.6 17 21.5C17 20.3 17.7 19.3 18.75 18.8C18.6 19.35 18.5 19.9 18.5 20.5C18.5 20.8 18.7 21 19 21C19.3 21 19.5 20.8 19.5 20.5C19.5 19.7 19.65 18.95 20 18.25C20.9 16.25 22.85 15 25 15C27.15 15 29.1 16.25 30 18.25C30.05 18.4 30.2 18.5 30.4 18.55C31.9 18.75 33 20 33 21.5C33 22.65 32.35 23.7 31.35 24.2Z" fill="#E3C08D"/>
</svg>
